<svg xmlns="http://www.w3.org/2000/svg" width="137" height="300" viewBox="232 12 137 300" xmlns:xlink="http://www.w3.org/1999/xlink" joint-selector="svg" id="v-621">
<g xmlns="http://www.w3.org/2000/svg" model-id="_9QCDRZ3r2oIQ3pcfDBEd19" data-type="cofluent.component.Function" id="j_41" class="joint-cell joint-type-cofluent joint-type-cofluent-component joint-type-cofluent-component-function joint-element joint-theme-default" transform="translate(254,22)"><path joint-selector="multiInstanceIcon" id="v-108" stroke-width="4" stroke="rgb(238,248,242)" transform="matrix(1,0,0,1,105,0)"/><rect joint-selector="body" id="v-109" stroke-width="1" stroke="rgb(238,248,242)" fill="rgb(39,40,34)" fill-opacity="0.8" pointer-events="none" d="M 0 0 L 0 280" width="105" height="280"/><rect joint-selector="header" id="v-110" height="24" stroke-width="1" stroke="rgb(238,248,242)" fill="rgb(39,40,34)" width="105"/><image joint-selector="icon" id="v-117" xmlns:xlink="http://www.w3.org/1999/xlink" xlink:href="" width="16" height="16" display="none" transform="matrix(1,0,0,1,1,1)"/><g id="v-123" class="joint-port" transform="matrix(1,0,0,1,0,0)"><rect id="v-124" port="_ZhDt7X9vBhZ_bwYWf28Gj_" port-group="port" class="joint-port-body" width="105" height="280" fill="#ff0000" fill-opacity="0" pointer-events="stroke" stroke-width="10" stroke="#feb663" stroke-opacity="0" magnet="true"/><text fill="#000000" joint-selector="text" class="joint-port-label" transform="matrix(1,0,0,1,-15,0)" id="v-125" y=".3em" text-anchor="end"/></g><path joint-selector="divider" id="v-111" stroke-width="2" stroke="rgb(238,248,242)" pointer-events="none" d="M 0 0 L 105 0" transform="matrix(1,0,0,1,0,24)"/><image joint-selector="background" id="v-119" display="none" preserveAspectRatio="xMidYMid" pointer-events="none" width="105" height="256" transform="matrix(1,0,0,1,0,24)"/><text joint-selector="label" id="v-120" font-size="12" xml:space="preserve" text-vertical-anchor="middle" text-anchor="middle" fill="rgb(238,248,242)" font-family="Segoe UI" transform="matrix(1,0,0,1,52.5,12)"><tspan dy="0.3em" class="v-line">Consumer</tspan></text><image joint-selector="shortcut" id="v-112" xmlns:xlink="http://www.w3.org/1999/xlink" xlink:href="static/cofIcons/shortcut.gif" display="none" width="20" height="20" preserveAspectRatio="xMidYMin" pointer-events="none" transform="matrix(1,0,0,1,5,255)"/><image joint-selector="isimIcon" id="v-114" xmlns:xlink="http://www.w3.org/1999/xlink" xlink:href="static/cofIcons/simics.png" pointer-events="none" display="none" width="15" height="15" preserveAspectRatio="xMidYMin" transform="matrix(1,0,0,1,87,45)"/><image joint-selector="isimAttributesIcon" id="v-115" xmlns:xlink="http://www.w3.org/1999/xlink" xlink:href="static/cofIcons/isimAttributes.png" pointer-events="none" display="none" width="15" height="15" preserveAspectRatio="xMidYMin" transform="matrix(1,0,0,1,87,27)"/><image joint-selector="documentIcon" id="v-116" xmlns:xlink="http://www.w3.org/1999/xlink" xlink:href="static/cofIcons/note.gif" pointer-events="none" display="none" width="15" height="15" preserveAspectRatio="xMidYMin" transform="matrix(1,0,0,1,87,2)"/><image joint-selector="window" id="v-113" xmlns:xlink="http://www.w3.org/1999/xlink" xlink:href="static/cofIcons/window.gif" display="none" width="25" height="25" preserveAspectRatio="xMidYMin" pointer-events="none" transform="matrix(1,0,0,1,75,250)"/><path joint-selector="cross" id="v-118" stroke-width="1" stroke="#808080" fill="rgb(39,40,34)" fill-opacity="0" stroke-opacity="0" pointer-events="none" d="M 0 0 L 105 280 M 0 280 L 105 0"/></g>
<g xmlns="http://www.w3.org/2000/svg" model-id="_Rg1-aX1PMxA1JCBnVWpabG" data-type="link" id="j_49" class="joint-cell joint-type-link joint-link joint-theme-default"><path joint-selector="wrapper" id="v-301" fill="none" stroke="#3e69ff" stroke-width="5" stroke-opacity="1" stroke-linejoin="bevel" d="M 254 219 L 282 219"/><path joint-selector="core" id="v-302" fill="none" stroke="rgb(39,40,34)" stroke-width="3" stroke-dasharray="" stroke-linejoin="bevel" d="M 254 219 L 282 219" marker-end="url(#v-3841056242)" marker-start="url(#v-3-535636681)"/></g>
<g xmlns="http://www.w3.org/2000/svg" model-id="_M_V0HxA01P9EsdKDpfD-qR" data-type="cofluent.component.Behavior" id="j_42" class="joint-cell joint-type-cofluent joint-type-cofluent-component joint-type-cofluent-component-behavior joint-element joint-theme-default" transform="translate(254,46)"><rect joint-selector="body" id="v-126" stroke-width="1" stroke="rgb(238,248,242)" fill="rgb(39,40,34)" fill-opacity="0" stroke-opacity="0" pointer-events="none" width="105" height="256"/><text joint-selector="label" id="v-127" font-size="12" xml:space="preserve" text-vertical-anchor="middle" text-anchor="left" fill="rgb(238,248,242)" transform="matrix(1,0,0,1,0,12)"><tspan dy="0.3em" class="v-line">ConsumerBh</tspan></text><g id="v-130" class="joint-port" transform="matrix(1,0,0,1,56,30)"><circle r="6" fill="rgb(238,248,242)" stroke="#feb663" joint-selector="circle" port="_-fD9g-vK-2F0ZW1lbnTwn5" port-group="firstStatement" class="joint-port-body" id="v-131" pointer-events="stroke" stroke-width="10" stroke-opacity="0" magnet="true"/><text fill="#000000" joint-selector="text" class="joint-port-label" transform="matrix(1,0,0,1,-15,0)" id="v-132" y=".3em" text-anchor="end"/></g></g>
<g xmlns="http://www.w3.org/2000/svg" model-id="_3dKo8Q70_4ekmRllXff-2Q" data-type="cofluent.component.Port" id="j_53" class="joint-cell joint-type-cofluent joint-type-cofluent-component joint-type-cofluent-component-port joint-element joint-theme-default" data-tooltip="MsgQ" data-tooltip-position="top" data-tooltip-class-name="joint-theme-modern" transform="translate(242,213)"><g id="v-192" class="joint-port" transform="matrix(1,0,0,1,0,0)"><rect id="v-193" port="_HBE1KC4bLgp3fUFQQ1hEbn" port-group="outputActions_inputActions_inputSelectorInputs_outputSelectorOutputs_relations_port_ports_clockletPort_operations" class="joint-port-body" width="12" height="12" fill="#ff0000" fill-opacity="0" pointer-events="stroke" stroke-width="10" stroke="#feb663" stroke-opacity="0" magnet="true"/><text fill="#000000" joint-selector="text" class="joint-port-label" transform="matrix(1,0,0,1,-15,0)" id="v-194" y=".3em" text-anchor="end"/></g><rect joint-selector="body" id="v-187" stroke-width="1" stroke="rgb(238,248,242)" fill="rgb(238,248,242)" width="12" height="12"/><image joint-selector="documentIcon" id="v-188" xmlns:xlink="http://www.w3.org/1999/xlink" xlink:href="static/cofIcons/note.gif" pointer-events="none" display="none" width="10" height="10" preserveAspectRatio="xMidYMin" transform="matrix(1,0,0,1,7,-6)"/><text joint-selector="label" id="v-189" font-size="12" xml:space="preserve" text-vertical-anchor="middle" text-anchor="middle" fill="rgb(238,248,242)" display="none" transform="matrix(1,0,0,1,5,20)"><tspan dy="0.3em" class="v-line">MsgQ</tspan></text></g>
<g xmlns="http://www.w3.org/2000/svg" model-id="_GE5jcE9rYhhgVHVcL3otX1" data-type="link" id="j_51" class="joint-cell joint-type-link joint-link joint-theme-default"><path joint-selector="wrapper" id="v-303" fill="none" stroke="rgb(39,40,34)" stroke-width="5" stroke-opacity="0" stroke-linejoin="bevel" d="M 310 277 L 310 274 L 270 274 L 270 167 L 291 167"/><path joint-selector="core" id="v-304" fill="none" stroke="rgb(238,248,242)" stroke-width="1" stroke-dasharray="" stroke-linejoin="bevel" d="M 310 277 L 310 274 L 270 274 L 270 167 L 291 167" marker-end="url(#v-3-504195975)" marker-start="url(#v-3-704066797)"/></g>
<g xmlns="http://www.w3.org/2000/svg" model-id="_Q0t0bWNnH25VGjl6cndeaV" data-type="link" id="j_48" class="joint-cell joint-type-link joint-link joint-theme-default"><path joint-selector="wrapper" id="v-299" fill="none" stroke="rgb(39,40,34)" stroke-width="5" stroke-opacity="0" stroke-linejoin="bevel" d="M 310 185 L 310 194 L 309.5 194 L 309.5 206.5 L 310 206.5 L 310 210"/><path joint-selector="core" id="v-300" fill="none" stroke="rgb(238,248,242)" stroke-width="1" stroke-dasharray="" stroke-linejoin="bevel" d="M 310 185 L 310 194 L 309.5 194 L 309.5 206.5 L 310 206.5 L 310 210" marker-end="url(#v-3-504195975)" marker-start="url(#v-3-704066797)"/></g>
<g xmlns="http://www.w3.org/2000/svg" model-id="_Sy1ZQUs_TxdSXEYpbXdkWk" data-type="link" id="j_47" class="joint-cell joint-type-link joint-link joint-theme-default"><path joint-selector="wrapper" id="v-297" fill="none" stroke="rgb(39,40,34)" stroke-width="5" stroke-opacity="0" stroke-linejoin="bevel" d="M 310 227 L 310 234 L 306 234 L 306 245 L 310 245 L 310 255"/><path joint-selector="core" id="v-298" fill="none" stroke="rgb(238,248,242)" stroke-width="1" stroke-dasharray="" stroke-linejoin="bevel" d="M 310 227 L 310 234 L 306 234 L 306 245 L 310 245 L 310 255" marker-end="url(#v-3-504195975)" marker-start="url(#v-3-704066797)"/></g>
<g xmlns="http://www.w3.org/2000/svg" model-id="_S2tEaiwoPX8wamgUaTJyS0" data-type="link" id="j_45" class="joint-cell joint-type-link joint-link joint-theme-default"><path joint-selector="wrapper" id="v-295" fill="none" stroke="rgb(39,40,34)" stroke-width="5" stroke-opacity="0" stroke-linejoin="bevel" d="M 310 82 L 310 105"/><path joint-selector="core" id="v-296" fill="none" stroke="rgb(238,248,242)" stroke-width="1" stroke-dasharray="" stroke-linejoin="bevel" d="M 310 82 L 310 105" marker-end="url(#v-3-504195975)" marker-start="url(#v-3-704066797)"/></g>
<g xmlns="http://www.w3.org/2000/svg" model-id="_GAtZAFQNZglUcmxxWgkjX2" data-type="link" id="j_44" class="joint-cell joint-type-link joint-link joint-theme-default"><path joint-selector="wrapper" id="v-289" fill="none" stroke="rgb(39,40,34)" stroke-width="5" stroke-opacity="0" stroke-linejoin="bevel" d="M 310 129 L 310 148"/><path joint-selector="core" id="v-290" fill="none" stroke="rgb(238,248,242)" stroke-width="1" stroke-dasharray="" stroke-linejoin="bevel" d="M 310 129 L 310 148" marker-end="url(#v-3-504195975)" marker-start="url(#v-3-704066797)"/></g>
<g xmlns="http://www.w3.org/2000/svg" model-id="_4UxhpC8bkZXM4l_omUD1Ug" data-type="cofluent.component.Operation" id="j_43" class="joint-cell joint-type-cofluent joint-type-cofluent-component joint-type-cofluent-component-operation joint-element joint-theme-default" transform="translate(280,106)"><path joint-selector="body" id="v-133" stroke-width="1" stroke="rgb(238,248,242)" fill="rgb(39,40,34)" stroke-linecap="round" stroke-linejoin="round" d="M 2.842170943040401e-14 3.299998894110608 L 2.842170943040401e-14 22 L 60 22 L 60 8.881784197001252e-16 L 7.199998838929318 8.881784197001252e-16 L 0 3.2999988941106064 L 7.199998838929318 3.2999988941106064 L 7.199998838929318 0"/><image joint-selector="documentIcon" id="v-134" xmlns:xlink="http://www.w3.org/1999/xlink" xlink:href="static/cofIcons/note.gif" pointer-events="none" display="none" width="15" height="15" preserveAspectRatio="xMidYMin" transform="matrix(1,0,0,1,42,2)"/><text joint-selector="label" id="v-135" font-size="12" xml:space="preserve" text-vertical-anchor="middle" text-anchor="middle" fill="rgb(238,248,242)" font-family="Segoe UI" transform="matrix(1,0,0,1,30,11)"><tspan dy="0.3em" class="v-line">init</tspan></text><g id="v-138" class="joint-port" transform="matrix(1,0,0,1,30,0)"><circle r="1" fill="#FFFFFF" stroke="#feb663" joint-selector="circle" port="_BD0DdmlvdXNfaXNGaXJzdE" port-group="previous_isFirstOf" class="joint-port-body" id="v-140" fill-opacity="0" pointer-events="stroke" stroke-width="10" stroke-opacity="0" magnet="true"/><text fill="#000000" joint-selector="text" class="joint-port-label" transform="matrix(1,0,0,1,-15,0)" id="v-141" y=".3em" text-anchor="end"/></g><g id="v-139" class="joint-port" transform="matrix(1,0,0,1,30,22)"><circle r="1" fill="#FFFFFF" stroke="#feb663" joint-selector="circle" port="_9-qI68bmg9Nhc3RPZvCfmY" port-group="next_isLastOf" class="joint-port-body" id="v-142" fill-opacity="0" pointer-events="stroke" stroke-width="10" stroke-opacity="0" magnet="true"/><text fill="#000000" joint-selector="text" class="joint-port-label" transform="matrix(1,0,0,1,-15,0)" id="v-143" y=".3em" text-anchor="end"/></g></g>
<g xmlns="http://www.w3.org/2000/svg" model-id="_5XMU4q8RBDtZPvZNLOk3yM" data-type="cofluent.component.InputAction" id="j_46" class="joint-cell joint-type-cofluent joint-type-cofluent-component joint-type-cofluent-component-inputaction joint-element joint-theme-default" transform="translate(283,211)"><path joint-selector="body1" id="v-144" stroke-width="1" stroke="rgb(238,248,242)" fill-opacity="0" stroke-linecap="round" stroke-linejoin="round" d="M 0 7.468239637523132 L 15.765157864669622 7.468239637523132 C 22.174801451997254 7.468239637523132 28.584445039324894 7.468239637523132 34.99408862665253 7.468239637523132 C 35.227262020048805 12.331767171891984 28.51796415127699 16.240791134014 22.725611469670156 14.633006704123911 C 16.793731550479485 13.371241441103246 14.050440902833534 7.142285455993578 17.708296310616532 3.2335714120034655 C 20.983458660764338 -0.8831419725133731 29.307546988628886 -1.1165900190713334 32.942210842906285 2.8063271301637718 C 34.26396056018388 4.118476226628331 34.999362686911226 5.789953260026667 34.99408862665253 7.4682396375231335 Z" width="17.5" height="7.5"/><path joint-selector="body2" id="v-145" stroke-width="1" stroke="rgb(238,248,242)" fill="rgb(238,248,242)" stroke-linecap="round" stroke-linejoin="round" d="M 0 8.72950819672131 L 0 6.270491803278688 L 9.615384615384615 6.270491803278688 L 9.615384615384615 0 L 15.480769230769232 7.5 L 9.615384615384617 15 L 9.615384615384617 8.72950819672131 L 1.7080354225002409e-15 8.72950819672131 M 35 7.5 L 34.03846153846154 7.5" width="17.5" height="7.5"/><image joint-selector="documentIcon" id="v-146" xmlns:xlink="http://www.w3.org/1999/xlink" xlink:href="static/cofIcons/note.gif" pointer-events="none" display="none" width="15" height="15" preserveAspectRatio="xMidYMin" transform="matrix(1,0,0,1,23,-5)"/><text joint-selector="condition" id="v-147" font-size="12" xml:space="preserve" display="none" text-vertical-anchor="middle" text-anchor="middle" fill="rgb(238,248,242)" transform="matrix(1,0,0,1,17,25)"><tspan dy="0.3em" style="fill-opacity: 0; stroke-opacity: 0;" class="v-line v-empty-line">-</tspan></text><g id="v-150" class="joint-port" transform="matrix(1,0,0,1,27,0)"><circle r="1" fill="#FFFFFF" stroke="#feb663" joint-selector="circle" port="_BD0DdmlvdXNfaXNGaXJzdE" port-group="previous_isFirstOf" class="joint-port-body" id="v-155" fill-opacity="0" pointer-events="stroke" stroke-width="10" stroke-opacity="0" magnet="true"/><text fill="#000000" joint-selector="text" class="joint-port-label" transform="matrix(1,0,0,1,-15,0)" id="v-156" y=".3em" text-anchor="end"/></g><g id="v-151" class="joint-port" transform="matrix(1,0,0,1,27,15)"><circle r="1" fill="#FFFFFF" stroke="#feb663" joint-selector="circle" port="_9-qI68bmg9Nhc3RPZvCfmY" port-group="next_isLastOf" class="joint-port-body" id="v-157" fill-opacity="0" pointer-events="stroke" stroke-width="10" stroke-opacity="0" magnet="true"/><text fill="#000000" joint-selector="text" class="joint-port-label" transform="matrix(1,0,0,1,-15,0)" id="v-158" y=".3em" text-anchor="end"/></g><g id="v-152" class="joint-port" transform="matrix(1,0,0,1,0,8)"><circle r="1" fill="#FFFFFF" stroke="#feb663" joint-selector="circle" port="_BAAAdF9pbnB1dFNlbGVjdG" port-group="port_inputSelector" class="joint-port-body" id="v-153" fill-opacity="0" pointer-events="stroke" stroke-width="10" stroke-opacity="0" magnet="true"/><text fill="#000000" joint-selector="text" class="joint-port-label" transform="matrix(1,0,0,1,-15,0)" id="v-154" y=".3em" text-anchor="end"/></g></g>
<g xmlns="http://www.w3.org/2000/svg" model-id="_CUMZdwWPa-xLpViZcdMY8O" data-type="cofluent.component.LoopStatement" id="j_50" class="joint-cell joint-type-cofluent joint-type-cofluent-component joint-type-cofluent-component-loopstatement joint-element joint-theme-default" transform="translate(292,149)"><path joint-selector="body" id="v-159" stroke-width="1" stroke="rgb(238,248,242)" fill-opacity="0" stroke-linecap="round" stroke-linejoin="round" d="M 24.999994762654218 12.499954780656623 L 24.999994762654218 22.499950731163153 L 29.999997872665734 17.499957480318898 L 25.000003739032948 12.499964229474642 M 25.94488571059438 13.44484603420969 L 25.94488571059438 21.555078375246154 L 29.999997872665734 17.499966929136917 L 25.94488571059438 13.444855483027709 M 26.889767682155817 14.389737287762756 L 26.889767682155817 20.610206019329127 L 29.999997872665734 17.499976377954965 L 26.889767682155817 14.389746736580776 M 27.834649653717253 15.334628541315823 L 27.834649653717253 19.6653336634121 L 29.999997872665734 17.499985826772985 L 27.834649653717253 15.334637990133842 M 28.77953162527869 16.27951979486889 L 28.77953162527869 18.72046130749507 L 29.999997872665734 17.499995275591004 M 25.000003739032948 12.500002024746749 M 17.500001200000103 5.0000026996623035 L 17.500001200000103 29.999997300337725 M 17.500001200000103 29.999997300337725 L 4.999999802924613 17.500004724409024 M 4.999999802924613 17.500004724409024 L 25.191808165086112 17.50756377884693 M 17.500001200000103 0 L 0 17.500004724409024 L 17.500001200000106 35 L 35 17.500004724409024 Z"/><image joint-selector="documentIcon" id="v-161" xmlns:xlink="http://www.w3.org/1999/xlink" xlink:href="static/cofIcons/note.gif" pointer-events="none" display="none" width="15" height="15" preserveAspectRatio="xMidYMin" transform="matrix(1,0,0,1,17,2)"/><text joint-selector="condition" id="v-160" font-size="12" xml:space="preserve" display="none" text-vertical-anchor="middle" text-anchor="left" fill="rgb(238,248,242)" transform="matrix(1,0,0,1,22,0)"><tspan dy="0.3em" style="fill-opacity: 0; stroke-opacity: 0;" class="v-line v-empty-line">-</tspan></text><g id="v-164" class="joint-port" transform="matrix(1,0,0,1,18,0)"><circle r="1" fill="#FFFFFF" stroke="#feb663" joint-selector="circle" port="_BD0DdmlvdXNfaXNGaXJzdE" port-group="previous_isFirstOf" class="joint-port-body" id="v-168" fill-opacity="0" pointer-events="stroke" stroke-width="10" stroke-opacity="0" magnet="true"/><text fill="#000000" joint-selector="text" class="joint-port-label" transform="matrix(1,0,0,1,-15,0)" id="v-169" y=".3em" text-anchor="end"/></g><g id="v-165" class="joint-port" transform="matrix(1,0,0,1,35,18)"><circle r="1" fill="#FFFFFF" stroke="#feb663" joint-selector="circle" port="_9-qI68bmg9Nhc3RPZvCfmY" port-group="next_isLastOf" class="joint-port-body" id="v-170" fill-opacity="0" pointer-events="stroke" stroke-width="10" stroke-opacity="0" magnet="true"/><text fill="#000000" joint-selector="text" class="joint-port-label" transform="matrix(1,0,0,1,-15,0)" id="v-171" y=".3em" text-anchor="end"/></g><g id="v-166" class="joint-port" transform="matrix(1,0,0,1,18,35)"><circle r="1" fill="#FFFFFF" stroke="#feb663" joint-selector="circle" port="_-fD9g-vK-2F0ZW1lbnTwn5" port-group="firstStatement" class="joint-port-body" id="v-172" fill-opacity="0" pointer-events="stroke" stroke-width="10" stroke-opacity="0" magnet="true"/><text fill="#000000" joint-selector="text" class="joint-port-label" transform="matrix(1,0,0,1,-15,0)" id="v-173" y=".3em" text-anchor="end"/></g><g id="v-167" class="joint-port" transform="matrix(1,0,0,1,0,18)"><circle r="1" fill="#FFFFFF" stroke="#feb663" joint-selector="circle" port="_9e6D68r7ketlbWVudPCfmY" port-group="lastStatement" class="joint-port-body" id="v-174" fill-opacity="0" pointer-events="stroke" stroke-width="10" stroke-opacity="0" magnet="true"/><text fill="#000000" joint-selector="text" class="joint-port-label" transform="matrix(1,0,0,1,-15,0)" id="v-175" y=".3em" text-anchor="end"/></g></g>
<g xmlns="http://www.w3.org/2000/svg" model-id="_IZ4EnczVMCu8Gb_WXirIq4" data-type="cofluent.component.Operation" id="j_52" class="joint-cell joint-type-cofluent joint-type-cofluent-component joint-type-cofluent-component-operation joint-element joint-theme-default" transform="translate(275,256)"><path joint-selector="body" id="v-176" stroke-width="1" stroke="rgb(238,248,242)" fill="rgb(39,40,34)" stroke-linecap="round" stroke-linejoin="round" d="M 2.842170943040401e-14 3.299998894110608 L 2.842170943040401e-14 22 L 70 22 L 70 8.881784197001252e-16 L 8.39999864541754 8.881784197001252e-16 L 0 3.2999988941106064 L 8.39999864541754 3.2999988941106064 L 8.39999864541754 0"/><image joint-selector="documentIcon" id="v-177" xmlns:xlink="http://www.w3.org/1999/xlink" xlink:href="static/cofIcons/note.gif" pointer-events="none" display="none" width="15" height="15" preserveAspectRatio="xMidYMin" transform="matrix(1,0,0,1,52,2)"/><text joint-selector="label" id="v-178" font-size="12" xml:space="preserve" text-vertical-anchor="middle" text-anchor="middle" fill="rgb(238,248,242)" font-family="Segoe UI" transform="matrix(1,0,0,1,35,11)"><tspan dy="0.3em" class="v-line">consume</tspan></text><g id="v-181" class="joint-port" transform="matrix(1,0,0,1,35,0)"><circle r="1" fill="#FFFFFF" stroke="#feb663" joint-selector="circle" port="_BD0DdmlvdXNfaXNGaXJzdE" port-group="previous_isFirstOf" class="joint-port-body" id="v-183" fill-opacity="0" pointer-events="stroke" stroke-width="10" stroke-opacity="0" magnet="true"/><text fill="#000000" joint-selector="text" class="joint-port-label" transform="matrix(1,0,0,1,-15,0)" id="v-184" y=".3em" text-anchor="end"/></g><g id="v-182" class="joint-port" transform="matrix(1,0,0,1,35,22)"><circle r="1" fill="#FFFFFF" stroke="#feb663" joint-selector="circle" port="_9-qI68bmg9Nhc3RPZvCfmY" port-group="next_isLastOf" class="joint-port-body" id="v-185" fill-opacity="0" pointer-events="stroke" stroke-width="10" stroke-opacity="0" magnet="true"/><text fill="#000000" joint-selector="text" class="joint-port-label" transform="matrix(1,0,0,1,-15,0)" id="v-186" y=".3em" text-anchor="end"/></g></g>
</svg>